<svg xmlns="http://www.w3.org/2000/svg" viewBox="0 0 224.61 204.09"><defs><style>.cls-1{fill:#132b44;}.cls-2{font-size:33.23px;font-family:HelveticaNeueLTStd-Roman, Helvetica Neue LT Std;}.cls-2,.cls-3{fill:#3c3c3b;}.cls-3{font-size:41.09px;font-family:HelveticaNeueLTStd-Md, Helvetica Neue LT Std;}</style></defs><title>logo-n</title><g id="Capa_2" data-name="Capa 2"><g id="Capa_1-2" data-name="Capa 1"><path class="cls-1" d="M120.91,9.07c27.86,0,50.1,21.68,50.83,48.89H172c-.44-32.37-26.75-58-59.65-58S53.26,26.11,52.61,58H70.16C70.43,30.92,93,9.07,120.91,9.07Z"/><path class="cls-1" d="M103.7,110.38c-27.86,0-50.1-21.68-50.83-48.89h-.26c.45,32.37,26.75,58,59.65,58s59.09-26.11,59.74-58H154.45C154.18,88.53,131.57,110.38,103.7,110.38Z"/><path class="cls-1" d="M118.26,29.3c17.17,0,30.87,12.91,31.32,29.12h.16C149.47,39.14,133.26,23.9,113,23.9S76.57,39.45,76.17,58.42H87C87.15,42.31,101.08,29.3,118.26,29.3Z"/><path class="cls-1" d="M106.38,89.93C89.2,89.93,75.48,76.68,75,60.05h-.16c.28,19.78,16.5,35.42,36.79,35.42s36.44-16,36.84-35.42H137.68C137.51,76.58,123.57,89.93,106.38,89.93Z"/><text class="cls-2" transform="translate(0 156.18)">Clínica de Ojos</text><text class="cls-3" transform="translate(0.41 195.01)">Santa Lucía</text></g></g></svg>