<svg xmlns="http://www.w3.org/2000/svg" width="231.6" height="97.44" viewBox="0 0 231.6 97.44"><g transform="translate(269.1)"><rect width="231.6" height="97.44" transform="translate(-269.1)" fill="none"/><path d="M-164.42,35.7h0V33c0-2-.49-2.53-1.46-2.53.67,0,1.16-1,1.16-1.95v-1a2.68,2.68,0,0,0-2.271-3.034,2.7,2.7,0,0,0-.629-.016h-5.48V37h2.07V31.72a.32.32,0,0,1,.31-.32h2.74c.87,0,1.46,0,1.46,1.46V35.4c0-.33,0,1.61.32,1.61h2.46c-.41,0-.65-.82-.66-1.33m-3.8-5.84h-2.7a.31.31,0,0,1-.27-.3V26.49a.46.46,0,0,1,.43-.4h2.82c1.28,0,1.45.55,1.45,1.78s.14,2-1.75,2" fill="#fff"/><path d="M-158.67,27.4c-2.62,0-4.06,1.67-4.06,4.7,0,3.25,1.45,5.11,4,5.11,2.09,0,3.47-1.05,3.79-2.87v-.11h-1.92v.07c-.15.75-.48,1.43-1.88,1.43a1.828,1.828,0,0,1-1.42-.57,3.665,3.665,0,0,1-.74-2.41v-.13h6v-.1c0-3.59-1.13-5.12-3.77-5.12m-2.2,3.54a2.161,2.161,0,0,1,2.058-2.258l.082,0a2,2,0,0,1,1.6.61,2.67,2.67,0,0,1,.5,1.85h-4.18a.05.05,0,0,1-.06-.037.045.045,0,0,1,0-.023Z" fill="#fff"/><path d="M-147.54,28.5a2.832,2.832,0,0,0-2.23-1.09c-2.31,0-3.64,1.74-3.64,4.81s1.26,4.87,3.45,4.87a3.6,3.6,0,0,0,2.5-1.31v1.1h1.78V24.62h-1.86Zm-1.9,7.12c-1.28,0-2.08-1.17-2.08-3.07,0-3.4,1-3.84,2.08-3.84,1.25,0,1.89,1.24,1.89,3.72,0,2-.69,3.19-1.89,3.19" fill="#fff"/><path d="M-164.83,63.31c0-1.6-1.28-3.22-3.83-3.18s-4.14,1.56-4.14,3.48c0,2.86,2.55,3.18,3.56,3.63,1.77.79,2.75,1.18,2.75,2.35,0,1.38-1,1.7-2.17,1.7-.64,0-2.55,0-2.55-1.86h-1.89c0,1.6.32,3.73,4.43,3.73,3.22,0,4.25-1.53,4.22-3.51,0-2.55-1.64-3.19-3.55-3.82-1.15-.39-2.87-.66-2.87-2.05a1.859,1.859,0,0,1,1.637-2.059,1.918,1.918,0,0,1,.273-.011c1.28,0,2.24.29,2.24,1.59Z" fill="#fff"/><path d="M-144.49,64h-2.27V61.4h-1.69V64h-1.79v1.5h1.79V70c0,1.52.13,2.26.94,2.72a4.882,4.882,0,0,0,2.69.41v-1.6h-.57a1.458,1.458,0,0,1-1-.35,2.575,2.575,0,0,1-.36-1.65V65.46h2.27Z" fill="#fff"/><path d="M-135.97,71.79V66.16c0-1.82-1.76-2.65-3.4-2.65a3.25,3.25,0,0,0-3.5,2.974l-.006.086v.09h1.72v-.09c0-1.24.54-1.79,1.76-1.79a1.848,1.848,0,0,1,1.31.38,1.432,1.432,0,0,1,.33,1v.61c-.25.46-1,.59-1.69.72l-.56.1-.37.08c-1.46.3-2.71.56-2.71,2.67,0,.71,0,2.88,3.27,2.88a3.653,3.653,0,0,0,2.15-.92l.11.63v.11h1.78Zm-1.79-1.43c0,1.13-1.34,1.59-2.05,1.59a1.38,1.38,0,0,1-1.5-1.244q-.006-.063-.006-.126c0-1,.24-1.44,1.56-1.66a12.333,12.333,0,0,0,2-.45Z" fill="#fff"/><path d="M-155.94,71.79V66.16c0-1.82-1.76-2.65-3.41-2.65a3.251,3.251,0,0,0-3.495,2.985c0,.025,0,.05-.005.075v.09h1.75v-.09c0-1.24.54-1.79,1.75-1.79a1.891,1.891,0,0,1,1.32.38,1.428,1.428,0,0,1,.32,1v.61c-.25.46-1,.59-1.68.72l-.57.1-.37.08c-1.45.3-2.71.56-2.71,2.67,0,.71,0,2.88,3.28,2.88a3.7,3.7,0,0,0,2.15-.92l.11.63v.11h1.79Zm-1.8-1.43c0,1.13-1.33,1.59-2,1.59a1.381,1.381,0,0,1-1.495-1.255c0-.038-.005-.077-.005-.115,0-1,.23-1.44,1.55-1.66a12.024,12.024,0,0,0,2-.45Z" fill="#fff"/><rect width="1.76" height="12.82" transform="translate(-153.51 60.26)" fill="#fff"/><path d="M-168.02,42.78c-3.49,0-5.1,2.23-5.1,6.67,0,4.12,1.61,6.35,5.1,6.35s4.9-2.23,4.9-6.35c0-4.44-1.41-6.67-4.9-6.67m0,11.11c-1.59,0-3.2-.32-3.2-4.44,0-4.44,1.61-5.08,3.2-5.08s2.92.63,2.92,5.08c0,4.12-1.3,4.44-2.89,4.44" fill="#fff"/><path d="M-149.33,46.38h-2.28V43.82h-1.69v2.56h-1.8v1.5h1.79v4.58h0c0,1.52.14,2.26.94,2.72a4.906,4.906,0,0,0,2.69.4V54h-.56a1.5,1.5,0,0,1-1-.35A2.6,2.6,0,0,1-151.6,52V47.88h2.28Z" fill="#fff"/><path d="M-159.17,43.5c-.69.4-.94,1.18-1,2.47v.63h-1.56v1.76h1.63v7.32h1.74V48.36h1.88V46.6h-1.87v-.22c0-1.4.53-1.69,1.16-1.69h.76V43.13h-.09a5.518,5.518,0,0,0-2.62.37" fill="#fff"/><rect width="1.86" height="9.49" transform="translate(-87.03 46.15)" fill="#fff"/><rect width="1.86" height="1.75" transform="translate(-87.03 42.86)" fill="#fff"/><path d="M-124.23,46.1a3.592,3.592,0,0,0-3,1.45,3.28,3.28,0,0,0-4.554-.881,3.286,3.286,0,0,0-.626.551v-.86h-1.9v9.32h1.95V49.76a2,2,0,0,1,1.689-2.269,2.024,2.024,0,0,1,.311-.021,1.73,1.73,0,0,1,1.7,1.759,1.637,1.637,0,0,1-.021.241v6.22h1.82V49.76a2.12,2.12,0,0,1,1.953-2.275,2.144,2.144,0,0,1,.227-.005c1.34,0,1.62,1.08,1.62,2V55.7h1.81V49.6c0-1.3-.38-3.47-3-3.47" fill="#fff"/><path d="M-90.88,46.35v.94a3.259,3.259,0,0,0-2.5-1.14,3.18,3.18,0,0,0-2.72,1.32,6.142,6.142,0,0,0-.92,3.56c0,3.07,1.26,4.63,3.73,4.63a3.071,3.071,0,0,0,2.28-1v.67c-.09,2.2-1.35,2.53-2.09,2.53a1.839,1.839,0,0,1-2-1.56v-.07h-1.78v.11c.34,1.93,1.58,2.87,3.78,2.87,2.46,0,3.71-1.22,3.82-3.73h0V46.35Zm-2.06,8c-1.51,0-2.27-1.15-2.27-3.45s.69-3.45,2.27-3.45c1.38,0,2.05,1.13,2.05,3.45,0,1-.2,3.45-2.05,3.45" fill="#fff"/><path d="M-67.1,54.34V48.73c0-1.82-1.77-2.65-3.41-2.65a3.251,3.251,0,0,0-3.5,2.984l0,.066v.1h1.72v-.1c0-1.23.54-1.79,1.75-1.79a1.821,1.821,0,0,1,1.31.39,1.432,1.432,0,0,1,.33,1v.61c-.25.46-1,.58-1.69.71l-.56.11-.36.07c-1.45.31-2.71.57-2.71,2.67,0,.71,0,2.88,3.27,2.88a3.653,3.653,0,0,0,2.14-.92l.12.62v.11h1.79Zm-1.8-1.42c0,1.12-1.34,1.59-2.05,1.59a1.371,1.371,0,0,1-1.485-1.245,1.217,1.217,0,0,1-.005-.135c0-.94.23-1.43,1.54-1.65a12.025,12.025,0,0,0,2-.45Z" fill="#fff"/><path d="M-140.77,54.21V48.6c0-1.82-1.76-2.64-3.4-2.64a3.229,3.229,0,0,0-3.486,2.951l0,.049v.1h1.71V49c0-1.23.54-1.78,1.75-1.78a1.8,1.8,0,0,1,1.31.38,1.368,1.368,0,0,1,.33,1v.61c-.25.46-1,.58-1.69.71a4.911,4.911,0,0,0-.55.11l-.37.07c-1.46.3-2.71.56-2.71,2.66,0,.72,0,2.88,3.27,2.88a3.653,3.653,0,0,0,2.14-.92l.11.64v.1h1.79Zm-1.79-1.42c0,1.12-1.34,1.59-2.05,1.59a1.38,1.38,0,0,1-1.486-1.266c0-.038,0-.076,0-.114,0-.94.23-1.43,1.55-1.65a12.025,12.025,0,0,0,2-.45Z" fill="#fff"/><path d="M-77.34,52.85A1.74,1.74,0,0,1-79.327,54.3l-.013,0c-2.12,0-2.14-3-2.14-3v-.1h0v-.54s0-3.11,2.16-3.11a1.68,1.68,0,0,1,1.89,1.439c0,.031.008.061.01.091v.07h1.81v-.11c-.32-2-1.56-3-3.69-3-2.38,0-3.83,1.66-4,4.58v.64c.16,2.91,1.61,4.58,4,4.58,2.19,0,3.4-.94,3.78-3v-.11h-1.81Z" fill="#fff"/><rect width="1.76" height="12.82" transform="translate(-138.58 42.82)" fill="#fff"/><rect width="1.76" height="12.82" transform="translate(-109.85 42.82)" fill="#fff"/><path d="M-115.49,46.05c-2.49,0-3.74,1.65-3.74,4.9s1.25,4.83,3.74,4.83,3.75-1.63,3.75-4.83-1.26-4.9-3.75-4.9m0,1.34c1.23,0,1.9.57,1.9,3.56s-.92,3.26-1.9,3.26-1.89-.39-1.89-3.26.66-3.56,1.89-3.56" fill="#fff"/><path d="M-102.28,46.05c-2.48,0-3.74,1.65-3.74,4.9s1.26,4.83,3.74,4.83,3.75-1.63,3.75-4.83-1.26-4.9-3.75-4.9m0,1.34c1.23,0,1.89.57,1.89,3.56s-.9,3.26-1.89,3.26-1.89-.39-1.89-3.26.67-3.56,1.89-3.56" fill="#fff"/><path d="M-100.44,44.61h1.86l1.91-1.75h-1.86Z" fill="#fff"/><path d="M-269.1,0V97.44H-37.5V0Zm52.59,39.44a3,3,0,0,1,3,3,3,3,0,0,1-3,3,3,3,0,0,1-3-3A3,3,0,0,1-216.51,39.44Zm-13.96,6.19a5.506,5.506,0,0,0-.11,1A6,6,0,0,0-225.209,52a6,6,0,0,0,6.569-5.371,5.5,5.5,0,0,0-.1-1,3.574,3.574,0,0,0,1.259.792A3.57,3.57,0,0,0-212.9,44.3a11.93,11.93,0,0,1,0,4.665,11.94,11.94,0,0,1-14.042,9.377A11.94,11.94,0,0,1-236.32,44.3a3.578,3.578,0,0,0,.788,1.251A3.579,3.579,0,0,0-230.47,45.63Zm5.86,20.05c-11.76,0-23.58-6.34-28.66-15.63,3.71-6.78,11-11.97,19.24-14.29H-234a14.3,14.3,0,0,0-4.992,10.86,14.34,14.34,0,0,0,14.34,14.34,14.34,14.34,0,0,0,14.34-14.34,14.31,14.31,0,0,0-5-10.86h.118c8.24,2.29,15.54,7.51,19.24,14.29C-201.02,59.34-212.85,65.68-224.61,65.68ZM-43.4,91.69H-180.28V6.09H-43.4Z" fill="#fff"/></g></svg>