<svg xmlns="http://www.w3.org/2000/svg" xmlns:xlink="http://www.w3.org/1999/xlink" viewBox="0 0 231.6 97.44"><defs><style>.cls-1{fill:none;}.cls-2{fill:#fff;}.cls-3{clip-path:url(#clip-path);}.cls-4{fill:#0071ce;}</style><clipPath id="clip-path" transform="translate(0)"><rect class="cls-1" width="231.6" height="97.44"/></clipPath></defs><title>isologotipo-blanco</title><g id="Capa_2" data-name="Capa 2"><g id="Capa_1-2" data-name="Capa 1"><path class="cls-2" d="M0,0V97.44H231.6V0ZM225.7,91.69H88.82V6.09H225.7Z" transform="translate(0)"/><g class="cls-3"><path class="cls-2" d="M104.68,35.7h0V33c0-2-.49-2.53-1.46-2.53.67,0,1.16-1,1.16-1.95v-1a2.68,2.68,0,0,0-2.9-3.05H96V37h2.07V31.72a.32.32,0,0,1,.31-.32l2.74,0c.87,0,1.46,0,1.46,1.46v2.54c0-.33,0,1.61.32,1.61h2.46c-.41,0-.65-.82-.66-1.33m-3.8-5.84H98.2a.31.31,0,0,1-.27-.3V26.49a.46.46,0,0,1,.43-.4h2.82c1.28,0,1.45.55,1.45,1.78s.14,2-1.75,2" transform="translate(0)"/><path class="cls-2" d="M110.43,27.4c-2.62,0-4.06,1.67-4.06,4.7,0,3.25,1.45,5.11,4,5.11,2.09,0,3.47-1.05,3.79-2.87l0-.11h-1.92v.07c-.15.75-.48,1.43-1.88,1.43a1.83,1.83,0,0,1-1.42-.57,3.67,3.67,0,0,1-.74-2.41v-.13h6v-.1c0-3.59-1.13-5.12-3.77-5.12m-2.2,3.54a2.16,2.16,0,0,1,2.14-2.26,2,2,0,0,1,1.6.61,2.67,2.67,0,0,1,.5,1.85h-4.18a.05.05,0,0,1-.06-.06v-.14Z" transform="translate(0)"/><path class="cls-2" d="M121.56,28.5a2.83,2.83,0,0,0-2.23-1.09c-2.31,0-3.64,1.74-3.64,4.81s1.26,4.87,3.45,4.87a3.6,3.6,0,0,0,2.5-1.31v1.1h1.78V24.62h-1.86Zm-1.9,7.12c-1.28,0-2.08-1.17-2.08-3.07,0-3.4,1-3.84,2.08-3.84,1.25,0,1.89,1.24,1.89,3.72,0,2-.69,3.19-1.89,3.19" transform="translate(0)"/><path class="cls-2" d="M104.27,63.31c0-1.6-1.28-3.22-3.83-3.18s-4.14,1.56-4.14,3.48c0,2.86,2.55,3.18,3.56,3.63,1.77.79,2.75,1.18,2.75,2.35,0,1.38-1,1.7-2.17,1.7-.64,0-2.55,0-2.55-1.86H96c0,1.6.32,3.73,4.43,3.73,3.22,0,4.25-1.53,4.22-3.51,0-2.55-1.64-3.19-3.55-3.82-1.15-.39-2.87-.66-2.87-2.05a1.86,1.86,0,0,1,1.91-2.07c1.28,0,2.24.29,2.24,1.59Z" transform="translate(0)"/><path class="cls-2" d="M124.61,64h-2.27V61.4h-1.69V64h-1.79v1.5h1.79V70c0,1.52.13,2.26.94,2.72a4.88,4.88,0,0,0,2.69.41V71.53h-.57a1.46,1.46,0,0,1-1-.35,2.57,2.57,0,0,1-.36-1.65V65.46h2.27Z" transform="translate(0)"/><path class="cls-2" d="M133.13,71.79V66.16c0-1.82-1.76-2.65-3.4-2.65a3.25,3.25,0,0,0-3.51,3.06v.09h1.72v-.09c0-1.24.54-1.79,1.76-1.79a1.85,1.85,0,0,1,1.31.38,1.43,1.43,0,0,1,.33,1v.61c-.25.46-1,.59-1.69.72l-.56.1-.37.08c-1.46.3-2.71.56-2.71,2.67,0,.71,0,2.88,3.27,2.88a3.65,3.65,0,0,0,2.15-.92l.11.63,0,.11h1.78Zm-1.79-1.43c0,1.13-1.34,1.59-2.05,1.59a1.38,1.38,0,0,1-1.51-1.37c0-1,.24-1.44,1.56-1.66a12.28,12.28,0,0,0,2-.45Z" transform="translate(0)"/><path class="cls-2" d="M113.16,71.79V66.16c0-1.82-1.76-2.65-3.41-2.65a3.25,3.25,0,0,0-3.5,3.06v.09H108v-.09c0-1.24.54-1.79,1.75-1.79a1.89,1.89,0,0,1,1.32.38,1.43,1.43,0,0,1,.32,1v.61c-.25.46-1,.59-1.68.72l-.57.1-.37.08c-1.45.3-2.71.56-2.71,2.67,0,.71,0,2.88,3.28,2.88a3.7,3.7,0,0,0,2.15-.92l.11.63v.11h1.79Zm-1.8-1.43c0,1.13-1.33,1.59-2,1.59a1.38,1.38,0,0,1-1.5-1.37c0-1,.23-1.44,1.55-1.66a12,12,0,0,0,2-.45Z" transform="translate(0)"/><rect class="cls-2" x="115.59" y="60.26" width="1.76" height="12.82"/><path class="cls-2" d="M101.08,42.78c-3.49,0-5.1,2.23-5.1,6.67,0,4.12,1.61,6.35,5.1,6.35s4.9-2.23,4.9-6.35c0-4.44-1.41-6.67-4.9-6.67m0,11.11c-1.59,0-3.2-.32-3.2-4.44,0-4.44,1.61-5.08,3.2-5.08S104,45,104,49.45c0,4.12-1.3,4.44-2.89,4.44" transform="translate(0)"/><path class="cls-2" d="M119.77,46.38h-2.28V43.82H115.8v2.56H114v1.5h1.79v4.58h0c0,1.52.14,2.26.94,2.72a4.91,4.91,0,0,0,2.69.4V54h-.56a1.5,1.5,0,0,1-1-.35A2.6,2.6,0,0,1,117.5,52V47.88h2.28Z" transform="translate(0)"/><path class="cls-2" d="M109.93,43.5c-.69.4-.94,1.18-1,2.47v.63h-1.56v1.76H109v7.32h1.74V48.36h1.88V46.6h-1.87v-.22c0-1.4.53-1.69,1.16-1.69h.76V43.13h-.09a5.51,5.51,0,0,0-2.62.37" transform="translate(0)"/><rect class="cls-2" x="182.07" y="46.15" width="1.86" height="9.49"/><rect class="cls-2" x="182.07" y="42.86" width="1.86" height="1.75"/><path class="cls-2" d="M144.87,46.1a3.59,3.59,0,0,0-3,1.45,3.28,3.28,0,0,0-5.18-.33v-.86h-1.9v9.32h1.95V49.76a2,2,0,0,1,2-2.29,1.73,1.73,0,0,1,1.68,2v6.22h1.82l0-5.93a2.12,2.12,0,0,1,2.18-2.28c1.34,0,1.62,1.08,1.62,2v6.22h1.81v-6.1c0-1.3-.38-3.47-3-3.47" transform="translate(0)"/><path class="cls-2" d="M178.22,46.35v.94a3.26,3.26,0,0,0-2.5-1.14A3.18,3.18,0,0,0,173,47.47a6.15,6.15,0,0,0-.92,3.56c0,3.07,1.26,4.63,3.73,4.63a3.07,3.07,0,0,0,2.28-1v.67c-.09,2.2-1.35,2.53-2.09,2.53a1.84,1.84,0,0,1-2-1.56l0-.07h-1.78l0,.11c.34,1.93,1.58,2.87,3.78,2.87,2.46,0,3.71-1.22,3.82-3.73h0V46.35Zm-2.06,8c-1.51,0-2.27-1.15-2.27-3.45s.69-3.45,2.27-3.45c1.38,0,2.05,1.13,2.05,3.45,0,1-.2,3.45-2.05,3.45" transform="translate(0)"/><path class="cls-2" d="M202,54.34V48.73c0-1.82-1.77-2.65-3.41-2.65a3.25,3.25,0,0,0-3.5,3.05v.1h1.72v-.1c0-1.23.54-1.79,1.75-1.79a1.82,1.82,0,0,1,1.31.39,1.43,1.43,0,0,1,.33,1v.61c-.25.46-1,.58-1.69.71l-.56.11-.36.07c-1.45.31-2.71.57-2.71,2.67,0,.71,0,2.88,3.27,2.88a3.65,3.65,0,0,0,2.14-.92l.12.62v.11h1.79Zm-1.8-1.42c0,1.12-1.34,1.59-2.05,1.59a1.37,1.37,0,0,1-1.49-1.38c0-.94.23-1.43,1.54-1.65a12,12,0,0,0,2-.45Z" transform="translate(0)"/><path class="cls-2" d="M128.33,54.21V48.6c0-1.82-1.76-2.64-3.4-2.64a3.23,3.23,0,0,0-3.49,3v.1h1.71V49c0-1.23.54-1.78,1.75-1.78a1.8,1.8,0,0,1,1.31.38,1.37,1.37,0,0,1,.33,1v.61c-.25.46-1,.58-1.69.71a4.86,4.86,0,0,0-.55.11l-.37.07c-1.46.3-2.71.56-2.71,2.66,0,.72,0,2.88,3.27,2.88a3.65,3.65,0,0,0,2.14-.92l.11.64,0,.1h1.79Zm-1.79-1.42c0,1.12-1.34,1.59-2.05,1.59A1.38,1.38,0,0,1,123,53c0-.94.23-1.43,1.55-1.65a12,12,0,0,0,2-.45Z" transform="translate(0)"/><path class="cls-2" d="M191.76,52.85a1.74,1.74,0,0,1-2,1.45c-2.12,0-2.14-3-2.14-3v-.1h0v-.54s0-3.11,2.16-3.11a1.68,1.68,0,0,1,1.9,1.53v.07h1.81l0-.11c-.32-2-1.56-3-3.69-3-2.38,0-3.83,1.66-4,4.58v.64c.16,2.91,1.61,4.58,4,4.58,2.19,0,3.4-.94,3.78-3l0-.11h-1.81Z" transform="translate(0)"/><rect class="cls-2" x="130.52" y="42.82" width="1.76" height="12.82"/><rect class="cls-2" x="159.25" y="42.82" width="1.76" height="12.82"/><path class="cls-2" d="M153.61,46.05c-2.49,0-3.74,1.65-3.74,4.9s1.25,4.83,3.74,4.83,3.75-1.63,3.75-4.83-1.26-4.9-3.75-4.9m0,1.34c1.23,0,1.9.57,1.9,3.56s-.92,3.26-1.9,3.26-1.89-.39-1.89-3.26.66-3.56,1.89-3.56" transform="translate(0)"/><path class="cls-2" d="M166.82,46.05c-2.48,0-3.74,1.65-3.74,4.9s1.26,4.83,3.74,4.83,3.75-1.63,3.75-4.83-1.26-4.9-3.75-4.9m0,1.34c1.23,0,1.89.57,1.89,3.56s-.9,3.26-1.89,3.26-1.89-.39-1.89-3.26.67-3.56,1.89-3.56" transform="translate(0)"/><polygon class="cls-2" points="168.66 44.61 170.52 44.61 172.43 42.86 170.57 42.86 168.66 44.61"/><path class="cls-4" d="M35.07,35.76c-8.24,2.32-15.53,7.51-19.24,14.29,5.08,9.29,16.9,15.63,28.66,15.63s23.59-6.34,28.66-15.63c-3.7-6.78-11-12-19.24-14.29" transform="translate(0)"/><path class="cls-2" d="M58.79,46.62A14.34,14.34,0,1,1,44.45,32.28,14.35,14.35,0,0,1,58.79,46.62" transform="translate(0)"/><path class="cls-4" d="M56.2,44.3a3.57,3.57,0,0,1-5.84,1.33,5.49,5.49,0,0,1,.1,1,6,6,0,0,1-11.94,0,5.48,5.48,0,0,1,.11-1,3.58,3.58,0,0,1-5.85-1.33,11.94,11.94,0,1,0,23.42,0" transform="translate(0)"/><path class="cls-4" d="M55.59,42.44a3,3,0,1,1-3-3,3,3,0,0,1,3,3" transform="translate(0)"/></g></g></g></svg>